<svg xmlns="http://www.w3.org/2000/svg" viewBox="0 0 233.34 92.65"><defs><style>.cls-1{fill:#999;}</style></defs><title>Asset 12</title><g id="Layer_2" data-name="Layer 2"><g id="Layer_1-2" data-name="Layer 1"><path class="cls-1" d="M28.82,84.88a19.16,19.16,0,0,1,12.28-4.7,52.7,52.7,0,0,1,7.32.45,1.45,1.45,0,0,0,.76-.07l-2.2-1a34.16,34.16,0,0,1-8.62-5.12,18.06,18.06,0,0,1-5.16-7.23,12.78,12.78,0,0,1,2.6.58A24.23,24.23,0,0,1,48,75.92a8.83,8.83,0,0,1,1.81,3.68,2.56,2.56,0,0,1-.48,2.18,8,8,0,0,1-3.31,2.49A23.11,23.11,0,0,1,37.6,86a24.73,24.73,0,0,1-7.84-.81C29.47,85.11,29.18,85,28.82,84.88Z"/><path class="cls-1" d="M29.51,73.44a13.43,13.43,0,0,1-6.15,1.26A26.33,26.33,0,0,1,9.11,70.11c-.25-.17-.49-.37-.74-.57C13.13,66.88,24.37,69,29.51,73.44Z"/><path class="cls-1" d="M18.86,79.2c4.12-3.71,15.41-4.39,21.43-1.27a10.33,10.33,0,0,1-2.64,1.67,18.39,18.39,0,0,1-7.21,1.62,26.45,26.45,0,0,1-11-1.72l-.42-.18Z"/><path class="cls-1" d="M6.08,56.76a21.94,21.94,0,0,1,13.49,6.17A28.14,28.14,0,0,1,23.74,68c.1.17.35.34.23.55s-.35.07-.54.06a15.77,15.77,0,0,1-8-2.51A26.65,26.65,0,0,1,6.6,57.75c-.16-.24-.3-.5-.44-.75A1,1,0,0,1,6.08,56.76Z"/><path class="cls-1" d="M32.48,73.79a2,2,0,0,1-.91-.35A17,17,0,0,1,25,66.78a27.06,27.06,0,0,1-3.6-9.87c-.07-.44-.29-1.1,0-1.27s.75.31,1.11.55A22.65,22.65,0,0,1,31.94,70.4a31.68,31.68,0,0,1,.56,3.21A.62.62,0,0,1,32.48,73.79Z"/><path class="cls-1" d="M18.7,60.25a12,12,0,0,1-2.41-3.68,20.24,20.24,0,0,1-1.54-7.11,23.63,23.63,0,0,1,1.07-8.84c0-.15.1-.29.19-.52C20.39,46.36,20.83,53.06,18.7,60.25Z"/><path class="cls-1" d="M31.92.05c-1.11,6.81-5,11.48-11,14.8A10.63,10.63,0,0,1,22,10.15a22.06,22.06,0,0,1,9.38-10A.64.64,0,0,1,31.92.05Z"/><path class="cls-1" d="M3.12,19.78a17.25,17.25,0,0,1,2.93,2.85,20.69,20.69,0,0,1,4.43,13.72c0,.47-.22.29-.42.16a12.69,12.69,0,0,1-4.14-4.65,22.63,22.63,0,0,1-2.85-11.2C3.07,20.39,3.1,20.13,3.12,19.78Z"/><path class="cls-1" d="M12,48.44a10.75,10.75,0,0,1-3.87-2.82A22.17,22.17,0,0,1,2.65,33.15c0-.12,0-.23,0-.35s0-.07,0-.1C7,34.16,12.45,43.4,12,48.44Z"/><path class="cls-1" d="M16.43,19.7a9.37,9.37,0,0,1-1.14-3.63A21.61,21.61,0,0,1,18.92,1.76c0-.08.12-.15.18-.23C21.15,6.24,20.76,13.44,16.43,19.7Z"/><path class="cls-1" d="M12.28,43.46a12,12,0,0,1,0-6.2,22.62,22.62,0,0,1,5.87-10.73c.13-.13.24-.3.45-.34C19.57,31.81,17.5,38.45,12.28,43.46Z"/><path class="cls-1" d="M14.52,56.42a11.36,11.36,0,0,1-5.26-1.53,22.36,22.36,0,0,1-9-9.33c-.09-.17-.15-.35-.26-.62C6.84,46.27,11.37,50.35,14.52,56.42Z"/><path class="cls-1" d="M11.73,10.49C15,16.62,14.71,22.73,12,29a3,3,0,0,1-.73-1,13.85,13.85,0,0,1-1.74-6.33,23.17,23.17,0,0,1,1.6-10c.08-.21.18-.43.28-.63S11.61,10.71,11.73,10.49Z"/><path class="cls-1" d="M28.28,12.36C26.7,18.58,21.54,23.5,15.52,25.58a9.68,9.68,0,0,1,1-3.2,19.77,19.77,0,0,1,6.35-7.18,19.25,19.25,0,0,1,5-2.74Z"/><path class="cls-1" d="M50.44,83.69a12.62,12.62,0,0,1-4.86,7.36,8.7,8.7,0,0,1-2.23,1.34,2.76,2.76,0,0,1-1,.23.84.84,0,0,1-.86-1.13A4.25,4.25,0,0,1,43,89.43a43.38,43.38,0,0,1,4.22-3A11.89,11.89,0,0,0,50.44,83.69Z"/><path class="cls-1" d="M200.17,67.35a17,17,0,0,1-3.26,5.33,27.07,27.07,0,0,1-9,6.28c-1.27.59-2.57,1.15-3.84,1.8.95-.11,1.89-.22,2.84-.31a28.44,28.44,0,0,1,10.52.52,21.73,21.73,0,0,1,7.17,3.9,8.32,8.32,0,0,1-2.4.71,27.71,27.71,0,0,1-13.85-.89,9.35,9.35,0,0,1-3.93-2.41,3,3,0,0,1-.71-3.21,11.93,11.93,0,0,1,3.12-4.78,25,25,0,0,1,12.81-6.93A.83.83,0,0,1,200.17,67.35Z"/><path class="cls-1" d="M200.94,73.9c.56-7.16,4.44-14.66,11.2-18.36a16.62,16.62,0,0,1-.7,4.18,26,26,0,0,1-5.64,10.64A13.51,13.51,0,0,1,200.94,73.9Z"/><path class="cls-1" d="M214.61,79.22a19.79,19.79,0,0,1-5.05,1.57A26.18,26.18,0,0,1,199,80.73,13.9,13.9,0,0,1,193.12,78C199.06,75.3,207.73,74.79,214.61,79.22Z"/><path class="cls-1" d="M227.33,56.79a6,6,0,0,1-.86,1.51,26,26,0,0,1-12,9.54,13.47,13.47,0,0,1-4.44.82c-.19,0-.39,0-.67-.06a26.12,26.12,0,0,1,7.8-8.26A21.71,21.71,0,0,1,227.33,56.79Z"/><path class="cls-1" d="M203.94,73.46c4.42-4.36,15.22-6.38,21.12-3.91-.27.21-.49.4-.74.57a26.69,26.69,0,0,1-10.88,4.32,17,17,0,0,1-8-.36A6.44,6.44,0,0,1,203.94,73.46Z"/><path class="cls-1" d="M214.68,60.19c-2.1-7-1.67-13.75,2.71-20a12.55,12.55,0,0,1,.85,3,25,25,0,0,1-.65,12.29A12.49,12.49,0,0,1,215,59.92.55.55,0,0,1,214.68,60.19Z"/><path class="cls-1" d="M214.28,1.49a21.74,21.74,0,0,1,3.44,8,17.24,17.24,0,0,1,.12,8.08,8.88,8.88,0,0,1-.84,2.16C213.44,16.12,212,6.37,214.28,1.49Z"/><path class="cls-1" d="M221.4,29c-3-6.36-2.71-13.42.31-18.36a15.23,15.23,0,0,1,1.44,3.91A21.73,21.73,0,0,1,223.32,25,9.94,9.94,0,0,1,221.4,29Z"/><path class="cls-1" d="M221.35,48.45c.76-6.71,3.52-12.16,9.4-15.84C231,38.22,225.69,47.25,221.35,48.45Z"/><path class="cls-1" d="M214.83,26.18a7.32,7.32,0,0,1,1.2,1.15,22.59,22.59,0,0,1,5.37,11.24,11.48,11.48,0,0,1-.16,4.52c-.1.41-.22.37-.46.12-3.87-4.07-6.21-8.78-6.18-14.5,0-.64.07-1.28.12-1.92A6.18,6.18,0,0,1,214.83,26.18Z"/><path class="cls-1" d="M212.46,14.91c-6-3.36-9.88-8-11-14.91a9.5,9.5,0,0,1,2.11,1.17,22.07,22.07,0,0,1,8,9.53A11.1,11.1,0,0,1,212.46,14.91Z"/><path class="cls-1" d="M233.34,45c-1.42,5.08-9.33,11.38-14.42,11.45a22.23,22.23,0,0,1,5-6.8A18.55,18.55,0,0,1,233.34,45Z"/><path class="cls-1" d="M230.27,19.85c.54,5.14-2.12,14.07-7.24,16.85C222.58,31.35,224.58,24.14,230.27,19.85Z"/><path class="cls-1" d="M217.87,25.61c-5.46-1.37-12.18-8.37-12.71-13.24a17.73,17.73,0,0,1,4.6,2.31,20.11,20.11,0,0,1,7.17,7.78A8.78,8.78,0,0,1,217.87,25.61Z"/><path class="cls-1" d="M182.92,84c.17,0,.27,0,.3.06a23.23,23.23,0,0,0,4.84,3.71,15.72,15.72,0,0,1,3.21,2.59,2.26,2.26,0,0,1,.69,1.44.79.79,0,0,1-.85.88,2.89,2.89,0,0,1-1.55-.45A13.64,13.64,0,0,1,182.92,84Z"/></g></g></svg>