<svg xmlns="http://www.w3.org/2000/svg" viewBox="0 0 406.65 297.05"><defs><style>.cls-1{fill:#ec6f24;}.cls-2{fill:#fff;}</style></defs><title>Asset 1</title><g id="Layer_2" data-name="Layer 2"><g id="Layer_1-2" data-name="Layer 1"><path class="cls-1" d="M0,23.68V273.37a23.68,23.68,0,0,0,23.68,23.68H383a23.69,23.69,0,0,0,23.69-23.68V23.68A23.69,23.69,0,0,0,383,0H23.68A23.68,23.68,0,0,0,0,23.68Zm398,75.1v99.49"/><polygon class="cls-2" points="54.94 109.61 144.69 227.24 176.13 170.5 196.75 212.7 215.41 169.09 249.54 227.24 337.29 109.61 302.48 109.61 255.86 175.89 216.06 110.15 196.31 143.99 176.33 109.56 138.99 174.37 89.75 109.61 54.94 109.61"/><path class="cls-2" d="M329.65,33.37c-2.87,23.42-2,30.32-22.06,32.93,19.69,3.2,20,10.41,22.06,32.92,2.74-22.64,2.2-29.43,22.05-32.92C331.7,63.73,332.37,56.77,329.65,33.37Z"/></g></g></svg>