<svg xmlns="http://www.w3.org/2000/svg" viewBox="0 0 817.44 689.94"><defs><style>.cls-1{opacity:0.6;}.cls-2{fill:none;stroke:#e6e6e6;stroke-miterlimit:10;stroke-width:65.19px;}.cls-3{fill:#e6e6e6;}</style></defs><title>Asset 4</title><g id="Layer_2" data-name="Layer 2"><g id="Layer_1-2" data-name="Layer 1"><g class="cls-1"><path class="cls-2" d="M347.26,636.2,58.05,396c-33.94-28.2-33.94-73.9,0-102.09L347.26,53.74c33.94-28.19,89-28.19,122.92,0L759.39,293.93c33.94,28.19,33.94,73.89,0,102.09L470.18,636.2C436.24,664.39,381.2,664.39,347.26,636.2Z"/><path class="cls-3" d="M424.59,186.05V503.89c0,27.14,31.85,41.74,52.41,24L665.77,365.44a31.71,31.71,0,0,0-.54-48.53L476.47,161.55C455.77,144.52,424.59,159.24,424.59,186.05Z"/></g></g></g></svg>