<svg xmlns="http://www.w3.org/2000/svg" xmlns:xlink="http://www.w3.org/1999/xlink" viewBox="0 0 1276.54 213.42"><defs><style>.cls-1{fill:url(#linear-gradient);}.cls-2{fill:url(#linear-gradient-2);}.cls-3{fill:#05516d;}.cls-4{fill:#36bdee;}.cls-5{fill:#3185c6;}.cls-6{fill:#3153a4;}.cls-7{fill:#e9f6f8;}.cls-8{fill:#bce3df;}.cls-9{fill:#04b6b1;}.cls-10{fill:#5ac4bf;}.cls-11,.cls-15{opacity:0.63;}.cls-12,.cls-15{fill:#fff;}.cls-13{fill:#48bfb0;}.cls-14{fill:#8cd2d1;}.cls-16{fill:url(#linear-gradient-3);}.cls-17{fill:url(#linear-gradient-4);}.cls-18{fill:url(#linear-gradient-5);}.cls-19{fill:url(#linear-gradient-6);}.cls-20{fill:#2975b7;}</style><linearGradient id="linear-gradient" x1="814.83" y1="160.15" x2="814.83" y2="175.36" gradientUnits="userSpaceOnUse"><stop offset="0" stop-color="#6daedf"/><stop offset="1" stop-color="#8778b8"/></linearGradient><linearGradient id="linear-gradient-2" x1="593.43" y1="138.6" x2="593.43" y2="169.54" xlink:href="#linear-gradient"/><linearGradient id="linear-gradient-3" x1="572.39" y1="118.8" x2="572.39" y2="166.6" xlink:href="#linear-gradient"/><linearGradient id="linear-gradient-4" x1="708.11" y1="158.16" x2="708.11" y2="176.22" xlink:href="#linear-gradient"/><linearGradient id="linear-gradient-5" x1="730.98" y1="135.88" x2="730.98" y2="170.36" xlink:href="#linear-gradient"/><linearGradient id="linear-gradient-6" x1="834.98" y1="147.76" x2="834.98" y2="170.5" xlink:href="#linear-gradient"/></defs><title>Asset 28</title><g id="Layer_2" data-name="Layer 2"><g id="Layer_1-2" data-name="Layer 1"><path class="cls-1" d="M830.41,170.77H800.49a8.6,8.6,0,0,1-2.51-3.11,3.73,3.73,0,0,1,.3-3.7,16.11,16.11,0,0,1,2.2-1.8,15.61,15.61,0,0,0,2.26-3.31,4,4,0,0,1,3.2-2.13c1.06,0,2,.75,3.06.85,1.57.15,2.9-1,4.33-1.71,2.41-1.13,5.25-.78,7.81-.05,4,1.14,7.94,3.32,10,6.93A7.43,7.43,0,0,1,830.41,170.77Z"/><path class="cls-2" d="M588.69,163.15a5,5,0,0,1-3.56-3.61c-.23-1.3.23-2.7-.26-3.92s-1.55-1.79-2.34-2.68a5.81,5.81,0,0,1,1.25-8.44c1.5-.92,3.43-1.13,4.64-2.4s1.32-2.9,2-4.36a6.05,6.05,0,0,1,4.89-3.62,4.5,4.5,0,0,1,4.69,3.46c.18,1.07-.1,2.17.06,3.24.29,2,1.92,3.39,3.3,4.81s2.7,3.33,2.15,5.23c-.38,1.35-1.65,2.39-1.73,3.79-.07,1.16.7,2.19,1,3.32.54,2.39-1.42,4.78-3.73,5.59s-4.43.46-6.65.18C592.49,163.51,590.5,163.73,588.69,163.15Z"/><polygon class="cls-3" points="598.15 149.17 597.62 148.63 594.27 151.89 594.27 145 593.51 145 593.51 159.24 589.45 153.48 588.83 153.91 593.51 160.56 593.51 170.78 594.27 170.78 594.27 152.96 598.15 149.17"/><rect class="cls-4" x="601.29" y="121.95" width="46.72" height="48.82"/><rect class="cls-5" x="648.01" y="121.95" width="19.16" height="48.82"/><rect class="cls-6" x="604.83" y="127.28" width="43.18" height="4.59"/><rect class="cls-6" x="648.01" y="127.28" width="15.36" height="4.59"/><rect class="cls-6" x="604.83" y="137.78" width="43.18" height="4.59"/><rect class="cls-6" x="648.01" y="137.78" width="15.36" height="4.59"/><rect class="cls-6" x="604.83" y="148.28" width="43.18" height="4.59"/><rect class="cls-6" x="648.01" y="148.28" width="15.36" height="4.59"/><rect class="cls-7" x="604.83" y="126.41" width="43.18" height="4.59"/><rect class="cls-8" x="648.01" y="126.41" width="15.36" height="4.59"/><rect class="cls-7" x="604.83" y="136.91" width="43.18" height="4.59"/><rect class="cls-8" x="648.01" y="136.91" width="15.36" height="4.59"/><rect class="cls-7" x="604.83" y="147.41" width="43.18" height="4.59"/><rect class="cls-8" x="648.01" y="147.41" width="15.36" height="4.59"/><path class="cls-6" d="M655.75,157.78h0a2,2,0,0,0-2,2v11h4.07v-11A2,2,0,0,0,655.75,157.78Z"/><path class="cls-6" d="M662.05,157.78h0a2,2,0,0,0-2,2v11h4.07v-11A2,2,0,0,0,662.05,157.78Z"/><path class="cls-9" d="M654.4,157.78h1.27a1.4,1.4,0,0,1,1.4,1.4v11.59a0,0,0,0,1,0,0H653a0,0,0,0,1,0,0V159.18A1.4,1.4,0,0,1,654.4,157.78Z"/><path class="cls-9" d="M660.7,157.78H662a1.4,1.4,0,0,1,1.4,1.4v11.59a0,0,0,0,1,0,0H659.3a0,0,0,0,1,0,0V159.18A1.4,1.4,0,0,1,660.7,157.78Z"/><rect class="cls-7" x="607.2" y="113.93" width="15.16" height="8.02"/><rect class="cls-5" x="622.35" y="113.93" width="5.32" height="8.02"/><rect class="cls-7" x="636" y="113.93" width="15.16" height="8.02"/><rect class="cls-5" x="651.16" y="113.93" width="5.32" height="8.02"/><rect class="cls-9" x="609.28" y="162.11" width="6.97" height="8.66"/><polygon class="cls-10" points="616.25 162.11 616.25 159.22 605.62 159.22 605.62 170.78 609.28 170.78 609.28 162.11 616.25 162.11"/><polygon class="cls-10" points="616.25 159.22 616.25 162.11 616.25 170.78 619.91 170.78 619.91 162.11 626.88 162.11 626.88 159.22 616.25 159.22"/><rect class="cls-9" x="613.4" y="162.11" width="13.49" height="8.66"/><g class="cls-11"><polygon class="cls-12" points="624.91 131.01 628.16 126.41 623.89 126.41 620.64 131.01 624.91 131.01"/><polygon class="cls-12" points="620.74 136.91 616.47 136.91 613.23 141.51 617.5 141.51 620.74 136.91"/><polygon class="cls-12" points="609.06 147.41 605.81 152.01 610.08 152.01 613.32 147.41 609.06 147.41"/><polygon class="cls-12" points="663.37 131.01 663.37 127.49 660.89 131.01 663.37 131.01"/><polygon class="cls-12" points="653.47 141.51 657.74 141.51 660.98 136.91 656.72 136.91 653.47 141.51"/><polygon class="cls-12" points="648.01 149.23 646.05 152.01 648.01 152.01 648.01 149.23"/><polygon class="cls-12" points="649.3 147.41 648.01 149.23 648.01 152.01 650.32 152.01 653.57 147.41 649.3 147.41"/><polygon class="cls-12" points="629.46 131.01 632.7 126.41 631.78 126.41 628.53 131.01 629.46 131.01"/><polygon class="cls-12" points="624.36 136.91 621.12 141.51 622.04 141.51 625.28 136.91 624.36 136.91"/><polygon class="cls-12" points="616.95 147.41 613.7 152.01 614.62 152.01 617.87 147.41 616.95 147.41"/><polygon class="cls-12" points="661.82 147.41 658.57 152.01 659.49 152.01 662.74 147.41 661.82 147.41"/><polygon class="cls-12" points="641.09 131.01 644.33 126.41 638.62 126.41 635.38 131.01 641.09 131.01"/><polygon class="cls-12" points="631.21 136.91 627.96 141.51 633.67 141.51 636.91 136.91 631.21 136.91"/><polygon class="cls-12" points="623.79 147.41 620.55 152.01 626.25 152.01 629.5 147.41 623.79 147.41"/><polygon class="cls-12" points="645.17 131.01 648.01 126.99 648.01 126.41 647.3 126.41 644.06 131.01 645.17 131.01"/><polygon class="cls-12" points="648.01 126.99 648.42 126.41 648.01 126.41 648.01 126.99"/><polygon class="cls-12" points="639.88 136.91 636.64 141.51 637.76 141.51 641 136.91 639.88 136.91"/><polygon class="cls-12" points="632.47 147.41 629.22 152.01 630.34 152.01 633.59 147.41 632.47 147.41"/><polygon class="cls-12" points="647.73 131.01 648.01 130.6 648.01 129.02 646.61 131.01 647.73 131.01"/><polygon class="cls-12" points="648.01 130.6 650.97 126.41 649.86 126.41 648.01 129.02 648.01 130.6"/><polygon class="cls-12" points="642.44 136.91 639.19 141.51 640.31 141.51 643.56 136.91 642.44 136.91"/><polygon class="cls-12" points="635.02 147.41 631.78 152.01 632.9 152.01 636.14 147.41 635.02 147.41"/><polygon class="cls-12" points="653.44 131.01 656.69 126.41 655.57 126.41 652.32 131.01 653.44 131.01"/><polygon class="cls-12" points="648.01 137.11 644.91 141.51 646.03 141.51 648.01 138.69 648.01 137.11"/><polygon class="cls-12" points="648.01 138.69 649.27 136.91 648.15 136.91 648.01 137.11 648.01 138.69"/><polygon class="cls-12" points="640.74 147.41 637.49 152.01 638.61 152.01 641.85 147.41 640.74 147.41"/><polygon class="cls-12" points="613.65 131.01 616.9 126.41 615.81 126.41 612.56 131.01 613.65 131.01"/><polygon class="cls-12" points="608.39 136.91 605.15 141.51 606.24 141.51 609.48 136.91 608.39 136.91"/><polygon class="cls-12" points="614.22 126.41 608.49 126.41 605.24 131.01 610.98 131.01 614.22 126.41"/><polygon class="cls-12" points="604.83 136.91 604.83 139.71 606.81 136.91 604.83 136.91"/></g><polygon class="cls-7" points="636.86 159.22 633.41 164.11 636.92 164.11 640.37 159.22 636.86 159.22"/><polygon class="cls-7" points="641.7 159.22 638.24 164.11 639.94 164.11 643.39 159.22 641.7 159.22"/><polygon class="cls-7" points="644.47 159.58 641.26 164.11 644.47 164.11 644.47 159.58"/><polygon class="cls-12" points="632.13 159.22 632.13 164.11 633.41 164.11 636.86 159.22 632.13 159.22"/><polygon class="cls-12" points="640.37 159.22 636.92 164.11 638.24 164.11 641.7 159.22 640.37 159.22"/><polygon class="cls-12" points="644.47 159.22 643.39 159.22 639.94 164.11 641.26 164.11 644.47 159.58 644.47 159.22"/><polygon class="cls-13" points="763.93 67.61 761.7 67.61 761.7 170.78 786.76 170.78 786.76 67.61 763.93 67.61"/><polygon class="cls-6" points="794.25 67.61 786.76 67.61 786.76 170.78 796.48 170.78 796.48 67.61 794.25 67.61"/><rect class="cls-8" x="786.76" y="56.59" width="7.48" height="11.02"/><rect class="cls-7" x="763.93" y="56.59" width="22.84" height="11.02"/><rect class="cls-8" x="764.12" y="131.32" width="22.46" height="4.66"/><rect class="cls-8" x="764.12" y="121.24" width="22.46" height="4.66"/><rect class="cls-8" x="764.12" y="111.15" width="22.46" height="4.66"/><rect class="cls-8" x="764.12" y="116.2" width="22.46" height="4.66"/><rect class="cls-8" x="764.12" y="126.28" width="22.46" height="4.66"/><rect class="cls-8" x="764.12" y="146.45" width="22.46" height="4.66"/><rect class="cls-8" x="764.12" y="136.36" width="22.46" height="4.66"/><rect class="cls-8" x="764.12" y="141.4" width="22.46" height="4.66"/><rect class="cls-8" x="764.12" y="80.91" width="22.46" height="4.66"/><rect class="cls-8" x="764.12" y="106.11" width="22.46" height="4.66"/><rect class="cls-8" x="764.12" y="75.86" width="22.46" height="4.66"/><rect class="cls-8" x="764.12" y="151.49" width="22.46" height="4.66"/><rect class="cls-8" x="764.12" y="70.82" width="22.46" height="4.66"/><rect class="cls-8" x="764.12" y="85.95" width="22.46" height="4.66"/><rect class="cls-8" x="764.12" y="101.07" width="22.46" height="4.66"/><rect class="cls-8" x="764.12" y="90.99" width="22.46" height="4.66"/><rect class="cls-8" x="764.12" y="96.03" width="22.46" height="4.66"/><rect class="cls-14" x="786.95" y="75.86" width="7.1" height="4.66"/><rect class="cls-14" x="786.95" y="101.07" width="7.1" height="4.66"/><rect class="cls-14" x="786.95" y="96.03" width="7.1" height="4.66"/><rect class="cls-14" x="786.95" y="106.11" width="7.1" height="4.66"/><rect class="cls-14" x="786.95" y="90.99" width="7.1" height="4.66"/><rect class="cls-14" x="786.95" y="80.91" width="7.1" height="4.66"/><rect class="cls-14" x="786.95" y="85.95" width="7.1" height="4.66"/><rect class="cls-14" x="786.95" y="151.49" width="7.1" height="4.66"/><rect class="cls-14" x="786.95" y="111.15" width="7.1" height="4.66"/><rect class="cls-14" x="786.95" y="70.82" width="7.1" height="4.66"/><path class="cls-7" d="M787,70.44H763.74v86.09h30.7V70.44Zm7.11,85.71H787v-4.66h7.11Zm-7.49,0H764.12v-4.66h22.45ZM764.12,70.82h22.45v4.66H764.12Zm0,5h22.45v4.67H764.12Zm0,5h22.45v4.66H764.12Zm0,5h22.45v4.66H764.12Zm0,5h22.45v4.66H764.12Zm0,5h22.45v4.66H764.12Zm0,5h22.45v4.66H764.12Zm0,5h22.45v4.66H764.12Zm0,5h22.45v4.67H764.12Zm0,5h22.45v4.66H764.12Zm0,5h22.45v4.66H764.12Zm0,5h22.45v4.66H764.12Zm0,5h22.45V136H764.12Zm0,5h22.45V141H764.12Zm0,5h22.45v4.66H764.12Zm0,5h22.45v4.66H764.12Zm29.94,4.66H787v-4.66h7.11Zm0-5.05H787V141.4h7.11Zm0-5H787v-4.66h7.11Zm0-5H787v-4.66h7.11Zm0-5H787v-4.66h7.11Zm0-5H787v-4.66h7.11Zm0-5H787V116.2h7.11Zm0-5H787v-4.67h7.11Zm0-5H787v-4.66h7.11Zm0-5H787v-4.66h7.11Zm0-5H787V96h7.11Zm0-5H787V91h7.11Zm0-5H787V86h7.11Zm0-5H787V80.91h7.11Zm0-5H787V75.86h7.11Zm0-5H787V70.82h7.11Z"/><rect class="cls-14" x="786.95" y="141.4" width="7.1" height="4.66"/><rect class="cls-14" x="786.95" y="136.36" width="7.1" height="4.66"/><rect class="cls-14" x="786.95" y="146.45" width="7.1" height="4.66"/><rect class="cls-14" x="786.95" y="116.2" width="7.1" height="4.66"/><rect class="cls-14" x="786.95" y="121.24" width="7.1" height="4.66"/><rect class="cls-14" x="786.95" y="131.32" width="7.1" height="4.66"/><rect class="cls-14" x="786.95" y="126.28" width="7.1" height="4.66"/><rect class="cls-8" x="788.67" y="159.49" width="5.58" height="4.04"/><rect class="cls-6" x="765.88" y="161.67" width="8.35" height="9.11"/><polygon class="cls-5" points="774.23 161.67 774.23 159.49 763.93 159.49 763.93 170.78 765.88 170.78 765.88 161.67 774.23 161.67"/><rect class="cls-5" x="774.23" y="159.49" width="10.3" height="2.18"/><rect class="cls-6" x="774.23" y="161.67" width="10.3" height="9.11"/><g class="cls-11"><polygon class="cls-12" points="765.26 90.99 765.54 90.61 769 85.95 769.29 85.57 772.75 80.91 773.03 80.53 776.49 75.86 776.77 75.48 780.23 70.82 780.51 70.44 768.75 70.44 768.47 70.82 765.01 75.48 764.73 75.86 764.12 76.69 763.74 77.2 763.74 80.53 763.74 80.91 763.74 85.57 763.74 85.95 763.74 90.61 763.74 90.99 763.74 93.05 764.12 92.53 765.26 90.99"/><polygon class="cls-12" points="792.87 125.9 792.59 126.28 789.13 130.94 788.85 131.32 786.96 133.87 786.57 134.38 785.39 135.98 785.11 136.36 781.65 141.02 781.36 141.4 777.9 146.06 777.62 146.44 774.16 151.11 773.88 151.49 770.42 156.15 770.14 156.53 781.9 156.53 782.18 156.15 785.64 151.49 785.92 151.11 786.57 150.23 786.96 149.72 789.38 146.44 789.67 146.06 793.13 141.4 793.41 141.02 794.06 140.15 794.44 139.64 794.44 136.36 794.44 135.98 794.44 131.32 794.44 130.94 794.44 126.28 794.44 125.9 794.44 123.79 794.06 124.3 792.87 125.9"/><polygon class="cls-12" points="794.06 74.11 793.04 75.48 792.75 75.86 789.29 80.53 789.01 80.91 786.96 83.68 786.57 84.19 785.55 85.57 785.27 85.95 781.81 90.61 781.53 90.99 778.07 95.65 777.79 96.03 774.33 100.69 774.05 101.07 770.59 105.73 770.3 106.11 766.85 110.77 766.56 111.16 764.12 114.45 763.74 114.96 763.74 115.82 763.74 116.2 763.74 120.86 763.74 121.24 763.74 123.28 764.12 122.77 765.26 121.24 765.54 120.86 769 116.2 769.28 115.82 772.74 111.16 773.02 110.77 776.48 106.11 776.76 105.73 780.22 101.07 780.5 100.69 783.96 96.03 784.25 95.65 786.57 92.51 786.96 92 787.71 90.99 787.99 90.61 791.45 85.95 791.73 85.57 794.06 82.43 794.44 81.92 794.44 80.91 794.44 80.53 794.44 75.86 794.44 75.48 794.44 73.6 794.06 74.11"/><polygon class="cls-12" points="793.77 100.69 793.49 101.07 790.03 105.73 789.75 106.11 786.96 109.87 786.57 110.39 786.29 110.77 786 111.16 782.54 115.82 782.26 116.2 778.8 120.86 778.52 121.24 775.06 125.9 774.78 126.28 771.32 130.94 771.04 131.32 767.58 135.98 767.3 136.36 764.12 140.65 763.74 141.16 763.74 141.4 763.74 146.06 763.74 146.44 763.74 149.48 764.12 148.97 765.99 146.44 766.27 146.06 769.73 141.4 770.01 141.02 773.47 136.36 773.75 135.98 777.21 131.32 777.5 130.94 780.96 126.28 781.24 125.9 784.7 121.24 784.98 120.86 786.57 118.71 786.96 118.2 788.44 116.2 788.72 115.82 792.18 111.16 792.46 110.77 794.06 108.63 794.44 108.11 794.44 106.11 794.44 105.73 794.44 101.07 794.44 100.69 794.44 99.79 794.06 100.31 793.77 100.69"/><polygon class="cls-12" points="766.22 96.03 766.5 95.65 769.98 90.99 770.26 90.61 773.73 85.95 774.01 85.57 777.49 80.91 777.77 80.53 781.24 75.86 781.52 75.48 785 70.82 785.28 70.44 784.17 70.44 783.88 70.82 780.41 75.48 780.13 75.86 776.66 80.53 776.37 80.91 772.9 85.57 772.62 85.95 769.15 90.61 768.86 90.99 765.39 95.65 765.11 96.03 764.12 97.36 763.74 97.87 763.74 99.36 764.12 98.85 766.22 96.03"/><polygon class="cls-12" points="766.93 101.07 767.22 100.69 770.68 96.03 770.97 95.65 774.43 90.99 774.71 90.61 778.18 85.95 778.46 85.57 781.92 80.91 782.21 80.53 785.67 75.86 785.95 75.48 786.57 74.65 786.96 74.14 789.42 70.82 789.7 70.44 788.28 70.44 788 70.82 786.96 72.23 786.57 72.74 784.54 75.48 784.25 75.86 780.79 80.53 780.51 80.91 777.04 85.57 776.76 85.95 773.29 90.61 773.01 90.99 769.55 95.65 769.26 96.03 765.8 100.69 765.52 101.07 764.12 102.95 763.74 103.47 763.74 105.37 764.12 104.86 766.93 101.07"/><polygon class="cls-12" points="791.55 115.82 791.27 116.2 787.8 120.86 787.52 121.24 786.96 122 786.57 122.51 784.06 125.9 783.77 126.28 780.31 130.94 780.03 131.32 776.56 135.98 776.28 136.36 772.81 141.02 772.53 141.4 769.07 146.06 768.78 146.44 765.32 151.11 765.04 151.49 764.12 152.72 763.74 153.23 763.74 155.14 764.12 154.63 766.45 151.49 766.74 151.11 770.2 146.44 770.49 146.06 773.95 141.4 774.23 141.02 777.7 136.36 777.98 135.98 781.44 131.32 781.73 130.94 785.19 126.28 785.47 125.9 786.57 124.42 786.96 123.91 788.94 121.24 789.22 120.86 792.69 116.2 792.97 115.82 794.06 114.36 794.44 113.84 794.44 111.93 794.06 112.45 791.55 115.82"/></g><polygon class="cls-10" points="780.58 98.36 778.34 98.36 778.34 170.78 803.41 170.78 803.41 98.36 780.58 98.36"/><polygon class="cls-6" points="810.89 98.36 803.41 98.36 803.41 170.78 813.13 170.78 813.13 98.36 810.89 98.36"/><rect class="cls-8" x="780.77" y="131.32" width="22.46" height="4.66"/><rect class="cls-8" x="780.77" y="121.24" width="22.46" height="4.66"/><rect class="cls-8" x="780.77" y="111.15" width="22.46" height="4.66"/><rect class="cls-8" x="780.77" y="116.2" width="22.46" height="4.66"/><rect class="cls-8" x="780.77" y="126.28" width="22.46" height="4.66"/><rect class="cls-8" x="780.77" y="146.45" width="22.46" height="4.66"/><rect class="cls-8" x="780.77" y="136.36" width="22.46" height="4.66"/><rect class="cls-8" x="780.77" y="141.4" width="22.46" height="4.66"/><rect class="cls-8" x="780.77" y="106.11" width="22.46" height="4.66"/><rect class="cls-8" x="780.77" y="151.49" width="22.46" height="4.66"/><rect class="cls-8" x="780.77" y="101.07" width="22.46" height="4.66"/><rect class="cls-14" x="803.6" y="101.07" width="7.1" height="4.66"/><path class="cls-7" d="M803.6,100.69H780.39v55.84h30.69V100.69Zm7.1,55.46h-7.1v-4.66h7.1Zm-7.48,0H780.77v-4.66h22.45Zm-22.45-55.08h22.45v4.66H780.77Zm0,5h22.45v4.66H780.77Zm0,5h22.45v4.67H780.77Zm0,5h22.45v4.66H780.77Zm0,5h22.45v4.66H780.77Zm0,5h22.45v4.66H780.77Zm0,5h22.45V136H780.77Zm0,5h22.45V141H780.77Zm0,5h22.45v4.66H780.77Zm0,5h22.45v4.66H780.77Zm29.93,4.66h-7.1v-4.66h7.1Zm0-5.05h-7.1V141.4h7.1Zm0-5h-7.1v-4.66h7.1Zm0-5h-7.1v-4.66h7.1Zm0-5h-7.1v-4.66h7.1Zm0-5h-7.1v-4.66h7.1Zm0-5h-7.1V116.2h7.1Zm0-5h-7.1v-4.67h7.1Zm0-5h-7.1v-4.66h7.1Zm0-5h-7.1v-4.66h7.1Z"/><rect class="cls-14" x="803.6" y="106.11" width="7.1" height="4.66"/><rect class="cls-14" x="803.6" y="151.49" width="7.1" height="4.66"/><rect class="cls-14" x="803.6" y="111.15" width="7.1" height="4.66"/><rect class="cls-14" x="803.6" y="141.4" width="7.1" height="4.66"/><rect class="cls-14" x="803.6" y="136.36" width="7.1" height="4.66"/><rect class="cls-14" x="803.6" y="146.45" width="7.1" height="4.66"/><rect class="cls-14" x="803.6" y="116.2" width="7.1" height="4.66"/><rect class="cls-14" x="803.6" y="121.24" width="7.1" height="4.66"/><rect class="cls-14" x="803.6" y="131.32" width="7.1" height="4.66"/><rect class="cls-14" x="803.6" y="126.28" width="7.1" height="4.66"/><rect class="cls-14" x="805.51" y="159.68" width="5.2" height="3.66"/><path class="cls-7" d="M805.13,159.3v4.41h6V159.3Zm5.57,4h-5.19v-3.65h5.19Z"/><polygon class="cls-4" points="777.35 94.39 803.41 94.39 795.73 81.98 777.35 94.39"/><polygon class="cls-5" points="795.73 81.98 803.41 94.39 814.12 94.39 795.73 81.98"/><rect class="cls-13" x="776.64" y="94.39" width="26.77" height="3.97"/><polygon class="cls-6" points="805.41 94.39 803.41 94.39 803.41 98.36 805.41 98.36 814.83 98.36 814.83 94.39 805.41 94.39"/><polygon class="cls-13" points="790.88 162.11 790.88 159.49 780.58 159.49 780.58 170.78 783.15 170.78 783.15 162.11 790.88 162.11"/><rect class="cls-9" x="783.15" y="162.11" width="7.73" height="8.66"/><rect class="cls-13" x="790.88" y="159.49" width="10.3" height="2.63"/><rect class="cls-9" x="790.88" y="162.11" width="10.3" height="8.66"/><polygon class="cls-8" points="800.54 131.32 797.12 135.98 801.14 135.98 803.22 133.14 803.22 131.32 800.54 131.32"/><polygon class="cls-8" points="799.05 131.32 796.88 131.32 793.46 135.98 795.63 135.98 799.05 131.32"/><polygon class="cls-8" points="803.22 135.98 803.22 134.69 802.27 135.98 803.22 135.98"/><polygon class="cls-8" points="781.6 131.32 780.76 132.44 780.76 135.98 785.43 135.98 788.85 131.32 781.6 131.32"/><polygon class="cls-8" points="803.22 125.64 803.22 122.68 800.86 125.9 803.03 125.9 803.22 125.64"/><polygon class="cls-8" points="781.38 121.24 780.76 122.07 780.76 125.9 780.93 125.9 784.4 121.24 781.38 121.24"/><polygon class="cls-8" points="789.09 121.24 785.63 125.9 792.83 125.9 796.25 121.24 789.09 121.24"/><polygon class="cls-8" points="787.9 121.24 785.34 121.24 781.87 125.9 784.43 125.9 787.9 121.24"/><polygon class="cls-8" points="791.91 111.16 788.87 111.16 785.4 115.82 788.44 115.82 791.91 111.16"/><polygon class="cls-8" points="795.39 111.16 792.85 111.16 789.38 115.82 791.93 115.82 795.39 111.16"/><polygon class="cls-8" points="800.23 115.82 803.22 111.75 803.22 111.16 796.59 111.16 793.12 115.82 800.23 115.82"/><polygon class="cls-8" points="799.96 116.2 792.84 116.2 789.38 120.86 796.53 120.86 799.96 116.2"/><polygon class="cls-8" points="789.09 116.2 785.62 120.86 788.18 120.86 791.64 116.2 789.09 116.2"/><polygon class="cls-8" points="788.16 116.2 785.12 116.2 781.66 120.86 784.68 120.86 788.16 116.2"/><polygon class="cls-8" points="792.55 126.28 785.35 126.28 781.88 130.94 789.13 130.94 792.55 126.28"/><polygon class="cls-8" points="803.22 130.94 803.22 127.66 800.82 130.94 803.22 130.94"/><polygon class="cls-8" points="781.58 126.28 780.76 127.38 780.76 130.83 784.15 126.28 781.58 126.28"/><polygon class="cls-8" points="800.58 126.28 797.16 130.94 799.33 130.94 802.75 126.28 800.58 126.28"/><polygon class="cls-8" points="787.95 146.44 785.78 146.44 782.35 151.11 784.53 151.11 787.95 146.44"/><polygon class="cls-8" points="786.01 151.11 790.04 151.11 793.46 146.44 789.43 146.44 786.01 151.11"/><polygon class="cls-8" points="803.22 151.11 803.22 146.44 794.59 146.44 791.17 151.11 803.22 151.11"/><polygon class="cls-8" points="793.41 141.02 797.44 141.02 800.86 136.36 796.84 136.36 793.41 141.02"/><polygon class="cls-8" points="803.22 141.02 803.22 136.36 801.99 136.36 798.57 141.02 803.22 141.02"/><polygon class="cls-8" points="780.76 136.36 780.76 141.02 781.73 141.02 785.15 136.36 780.76 136.36"/><polygon class="cls-8" points="795.35 136.36 793.18 136.36 789.76 141.02 791.93 141.02 795.35 136.36"/><polygon class="cls-8" points="803.22 146.06 803.22 141.4 798.29 141.4 794.87 146.06 803.22 146.06"/><polygon class="cls-8" points="791.65 141.4 789.48 141.4 786.05 146.06 788.23 146.06 791.65 141.4"/><polygon class="cls-8" points="780.76 141.4 780.76 142.34 781.45 141.4 780.76 141.4"/><polygon class="cls-8" points="789.71 146.06 793.74 146.06 797.16 141.4 793.13 141.4 789.71 146.06"/><polygon class="cls-8" points="795.67 106.11 792.61 106.11 789.15 110.77 792.2 110.77 795.67 106.11"/><polygon class="cls-8" points="780.76 106.11 780.76 108.73 782.71 106.11 780.76 106.11"/><polygon class="cls-8" points="799.14 106.11 796.6 106.11 793.13 110.77 795.68 110.77 799.14 106.11"/><polygon class="cls-8" points="803.22 110.77 803.22 106.11 800.34 106.11 796.87 110.77 803.22 110.77"/><polygon class="cls-8" points="785.73 151.49 782.31 156.15 786.34 156.15 789.76 151.49 785.73 151.49"/><polygon class="cls-8" points="790.89 151.49 787.47 156.15 799.52 156.15 802.95 151.49 790.89 151.49"/><polygon class="cls-8" points="782.08 151.49 780.76 153.27 780.76 156.15 780.83 156.15 784.25 151.49 782.08 151.49"/><polygon class="cls-8" points="803.22 156.15 803.22 152.66 800.66 156.15 803.22 156.15"/><polygon class="cls-8" points="799.42 105.73 802.89 101.07 800.36 101.07 796.89 105.73 799.42 105.73"/><polygon class="cls-8" points="803.22 105.73 803.22 102.23 800.62 105.73 803.22 105.73"/><polygon class="cls-8" points="795.95 105.73 799.42 101.07 796.35 101.07 792.89 105.73 795.95 105.73"/><polygon class="cls-8" points="780.76 101.07 780.76 105.73 782.99 105.73 786.45 101.07 780.76 101.07"/><g class="cls-11"><polygon class="cls-12" points="810.7 101.55 807.64 105.73 807.36 106.11 803.93 110.77 803.66 111.16 803.6 111.23 803.22 111.75 800.23 115.82 799.96 116.2 796.53 120.86 796.25 121.24 792.83 125.9 792.55 126.28 789.13 130.94 788.85 131.32 785.43 135.98 785.15 136.36 781.73 141.02 781.45 141.4 780.76 142.34 780.38 142.86 780.38 146.06 780.38 146.44 780.38 151.11 780.38 151.49 780.38 153.79 780.76 153.27 782.08 151.49 782.35 151.11 785.78 146.44 786.05 146.06 789.48 141.4 789.76 141.02 793.18 136.36 793.46 135.98 796.88 131.32 797.16 130.94 800.58 126.28 800.86 125.9 803.22 122.68 803.6 122.16 804.28 121.24 804.56 120.86 807.98 116.2 808.26 115.82 810.7 112.49 811.08 111.97 811.08 111.16 811.08 110.77 811.08 106.11 811.08 105.73 811.08 101.04 810.7 101.55"/><polygon class="cls-12" points="810.43 115.82 810.15 116.2 806.73 120.86 806.45 121.24 803.6 125.12 803.22 125.64 803.03 125.9 802.75 126.28 799.33 130.94 799.05 131.32 795.63 135.98 795.35 136.36 791.93 141.02 791.65 141.4 788.23 146.06 787.95 146.44 784.53 151.11 784.25 151.49 780.83 156.15 780.55 156.53 782.03 156.53 782.31 156.15 785.73 151.49 786.01 151.11 789.43 146.44 789.71 146.06 793.13 141.4 793.41 141.02 796.84 136.36 797.12 135.98 800.54 131.32 800.82 130.94 803.22 127.66 803.6 127.14 804.24 126.28 804.52 125.9 807.94 121.24 808.22 120.86 810.7 117.47 811.08 116.95 811.08 116.2 811.08 115.82 811.08 114.93 810.7 115.45 810.43 115.82"/><polygon class="cls-12" points="808.54 125.9 808.26 126.28 804.84 130.94 804.56 131.32 803.6 132.62 803.22 133.14 801.14 135.98 800.86 136.36 797.44 141.02 797.16 141.4 793.74 146.06 793.46 146.44 790.04 151.11 789.76 151.49 786.34 156.15 786.06 156.53 787.19 156.53 787.47 156.15 790.89 151.49 791.17 151.11 794.59 146.44 794.87 146.06 798.29 141.4 798.57 141.02 801.99 136.36 802.27 135.98 803.22 134.69 803.6 134.17 805.7 131.32 805.97 130.94 809.39 126.28 809.67 125.9 810.7 124.5 811.08 123.98 811.08 122.43 810.7 122.95 808.54 125.9"/><polygon class="cls-12" points="810.63 141.02 810.35 141.4 806.92 146.06 806.65 146.44 803.6 150.59 802.95 151.49 799.52 156.15 799.24 156.53 800.38 156.53 800.66 156.15 803.22 152.66 803.6 152.14 804.08 151.49 804.36 151.11 807.78 146.44 808.06 146.06 810.7 142.46 811.08 141.95 811.08 141.4 811.08 141.02 811.08 140.4 810.7 140.92 810.63 141.02"/><polygon class="cls-12" points="781.38 121.24 781.66 120.86 785.12 116.2 785.4 115.82 788.87 111.16 789.15 110.77 792.61 106.11 792.89 105.73 796.35 101.07 796.63 100.69 786.73 100.69 786.45 101.07 782.99 105.73 782.71 106.11 780.76 108.73 780.38 109.24 780.38 110.77 780.38 111.16 780.38 115.82 780.38 116.2 780.38 120.86 780.38 121.24 780.38 122.58 780.76 122.07 781.38 121.24"/><polygon class="cls-12" points="781.58 126.28 781.87 125.9 785.34 121.24 785.62 120.86 789.09 116.2 789.38 115.82 792.85 111.16 793.13 110.77 796.6 106.11 796.89 105.73 800.36 101.07 800.64 100.69 799.71 100.69 799.42 101.07 795.95 105.73 795.67 106.11 792.2 110.77 791.91 111.16 788.44 115.82 788.16 116.2 784.68 120.86 784.4 121.24 780.93 125.9 780.38 126.63 780.38 127.89 780.76 127.38 781.58 126.28"/><polygon class="cls-12" points="781.6 131.32 781.88 130.94 785.35 126.28 785.63 125.9 789.09 121.24 789.38 120.86 792.84 116.2 793.12 115.82 796.59 111.16 796.87 110.77 800.34 106.11 800.62 105.73 803.22 102.23 803.6 101.72 804.08 101.07 804.37 100.69 803.6 100.69 803.22 100.69 803.17 100.69 802.89 101.07 799.42 105.73 799.14 106.11 795.68 110.77 795.39 111.16 791.93 115.82 791.64 116.2 788.18 120.86 787.9 121.24 784.43 125.9 784.15 126.28 780.76 130.83 780.38 131.34 780.38 132.95 780.76 132.44 781.6 131.32"/><polygon class="cls-12" points="811.08 156.53 811.08 155.75 810.51 156.53 811.08 156.53"/><polygon class="cls-12" points="808.2 159.68 805.52 163.33 805.24 163.71 806.72 163.71 807 163.33 809.69 159.68 809.97 159.3 808.48 159.3 808.2 159.68"/></g><rect class="cls-13" x="661.41" y="105.15" width="26.91" height="65.62"/><rect class="cls-6" x="688.31" y="105.15" width="11.94" height="65.62"/><rect class="cls-13" x="663.94" y="89.24" width="22.44" height="15.87"/><rect class="cls-6" x="686.38" y="89.24" width="11.22" height="15.87"/><rect class="cls-6" x="664.95" y="161.33" width="7.94" height="9.45"/><rect class="cls-8" x="674.86" y="161.33" width="4.95" height="5.58"/><rect class="cls-8" x="679.82" y="161.33" width="4.95" height="5.58"/><rect class="cls-8" x="690.35" y="161.33" width="3.94" height="5.58"/><rect class="cls-8" x="694.29" y="161.33" width="3.94" height="5.58"/><path class="cls-4" d="M678,77.76a11.5,11.5,0,0,0-10.82,11.48h21.64A11.5,11.5,0,0,0,678,77.76Z"/><rect class="cls-8" x="671.53" y="93.21" width="3.25" height="3.35"/><rect class="cls-8" x="675.54" y="93.21" width="3.25" height="3.35"/><rect class="cls-8" x="667.52" y="97.32" width="3.25" height="3.35"/><rect class="cls-8" x="679.54" y="93.21" width="3.24" height="3.35"/><rect class="cls-8" x="667.52" y="93.21" width="3.25" height="3.35"/><rect class="cls-8" x="667.52" y="101.43" width="3.25" height="3.35"/><rect class="cls-8" x="671.53" y="97.32" width="3.25" height="3.35"/><rect class="cls-8" x="675.54" y="97.32" width="3.25" height="3.35"/><rect class="cls-8" x="679.54" y="101.43" width="3.24" height="3.35"/><rect class="cls-8" x="675.54" y="101.43" width="3.25" height="3.35"/><rect class="cls-8" x="679.54" y="97.32" width="3.24" height="3.35"/><rect class="cls-8" x="671.53" y="101.43" width="3.25" height="3.35"/><path class="cls-7" d="M671.53,105.53h12V92.45H666.76v13.08h4.77Zm-4-12.32h3.25v3.35h-3.25Zm4,0h3.25v3.35h-3.25Zm4,0h3.24v3.35h-3.24Zm4,0h3.25v3.35h-3.25Zm3.25,11.56h-3.25v-3.34h3.25Zm-4,0h-3.24v-3.34h3.24Zm-4,0h-3.25v-3.34h3.25Zm-3.25-7.45h3.25v3.34h-3.25Zm7.25,3.34h-3.24V97.32h3.24Zm4,0h-3.25V97.32h3.25Zm-15.27-3.34h3.25v3.34h-3.25Zm0,4.11h3.25v3.34h-3.25Z"/><rect class="cls-8" x="665.33" y="127.66" width="4.19" height="3.69"/><rect class="cls-8" x="665.33" y="114.31" width="4.19" height="3.69"/><rect class="cls-8" x="675.24" y="109.86" width="4.19" height="3.69"/><rect class="cls-8" x="665.33" y="118.76" width="4.19" height="3.69"/><rect class="cls-8" x="665.33" y="109.86" width="4.19" height="3.69"/><rect class="cls-8" x="670.29" y="109.86" width="4.19" height="3.69"/><rect class="cls-8" x="665.33" y="123.21" width="4.19" height="3.69"/><rect class="cls-8" x="665.33" y="132.11" width="4.19" height="3.69"/><rect class="cls-8" x="665.33" y="145.47" width="4.19" height="3.69"/><rect class="cls-8" x="665.33" y="154.37" width="4.19" height="3.69"/><rect class="cls-8" x="665.33" y="149.92" width="4.19" height="3.69"/><rect class="cls-8" x="665.33" y="141.02" width="4.19" height="3.69"/><rect class="cls-8" x="665.33" y="136.57" width="4.19" height="3.69"/><rect class="cls-8" x="675.24" y="145.47" width="4.19" height="3.69"/><rect class="cls-8" x="670.29" y="149.92" width="4.19" height="3.69"/><rect class="cls-8" x="670.29" y="145.47" width="4.19" height="3.69"/><rect class="cls-8" x="675.24" y="149.92" width="4.19" height="3.69"/><rect class="cls-8" x="670.29" y="136.57" width="4.19" height="3.69"/><rect class="cls-8" x="670.29" y="141.02" width="4.19" height="3.69"/><rect class="cls-8" x="670.29" y="154.37" width="4.19" height="3.69"/><rect class="cls-8" x="675.24" y="141.02" width="4.19" height="3.69"/><rect class="cls-8" x="675.24" y="114.31" width="4.19" height="3.69"/><rect class="cls-8" x="675.24" y="118.76" width="4.19" height="3.69"/><rect class="cls-8" x="675.24" y="127.66" width="4.19" height="3.69"/><rect class="cls-8" x="675.24" y="123.21" width="4.19" height="3.69"/><rect class="cls-8" x="675.24" y="136.57" width="4.19" height="3.69"/><rect class="cls-8" x="675.24" y="132.11" width="4.19" height="3.69"/><rect class="cls-8" x="680.2" y="136.57" width="4.19" height="3.69"/><rect class="cls-8" x="680.2" y="123.21" width="4.19" height="3.69"/><rect class="cls-8" x="670.29" y="127.66" width="4.19" height="3.69"/><rect class="cls-8" x="680.2" y="114.31" width="4.19" height="3.69"/><rect class="cls-8" x="680.2" y="118.76" width="4.19" height="3.69"/><rect class="cls-8" x="675.24" y="154.37" width="4.19" height="3.69"/><rect class="cls-8" x="670.29" y="123.21" width="4.19" height="3.69"/><rect class="cls-8" x="670.29" y="114.31" width="4.19" height="3.69"/><rect class="cls-8" x="670.29" y="118.76" width="4.19" height="3.69"/><rect class="cls-8" x="680.2" y="109.86" width="4.19" height="3.69"/><path class="cls-7" d="M679.44,109.1H664.57v49.72h20.58V109.1h-5.71Zm4.95,49H680.2v-3.69h4.19Zm-4.95,0h-4.2v-3.69h4.2Zm-5,0h-4.19v-3.69h4.19Zm-5,0h-4.2v-3.69h4.2Zm-4.2-48.2h4.2v3.69h-4.2Zm5,0h4.19v3.69h-4.19Zm5,0h4.2v3.69h-4.2Zm4.2,8.14h-4.2v-3.69h4.2Zm0,4.45h-4.2v-3.69h4.2Zm0,4.45h-4.2v-3.69h4.2Zm0,4.45h-4.2v-3.69h4.2Zm0,4.46h-4.2v-3.7h4.2Zm0,4.45h-4.2v-3.69h4.2Zm0,4.45h-4.2V141h4.2Zm0,4.45h-4.2v-3.69h4.2Zm0,4.45h-4.2v-3.69h4.2Zm-9.15-3.69h4.19v3.69h-4.19Zm0-4.45h4.19v3.69h-4.19Zm0-4.45h4.19v3.69h-4.19Zm0-4.45h4.19v3.69h-4.19Zm0-4.46h4.19v3.7h-4.19Zm0-4.45h4.19v3.69h-4.19Zm0-4.45h4.19v3.69h-4.19Zm0-4.45h4.19v3.69h-4.19Zm0-4.45h4.19V118h-4.19Zm-5,0h4.2V118h-4.2Zm0,4.45h4.2v3.69h-4.2Zm0,4.45h4.2v3.69h-4.2Zm0,4.45h4.2v3.69h-4.2Zm0,4.45h4.2v3.7h-4.2Zm0,4.46h4.2v3.69h-4.2Zm0,4.45h4.2v3.69h-4.2Zm0,4.45h4.2v3.69h-4.2Zm0,4.45h4.2v3.69h-4.2Zm19.06,3.69H680.2v-3.69h4.19Zm0-4.45H680.2v-3.69h4.19Zm0-4.45H680.2V141h4.19Zm0-4.45H680.2v-3.69h4.19Zm0-4.45H680.2v-3.7h4.19Zm0-4.46H680.2v-3.69h4.19Zm0-4.45H680.2v-3.69h4.19Zm0-4.45H680.2v-3.69h4.19Zm0-4.45H680.2v-3.69h4.19Zm0-4.45H680.2v-3.69h4.19Z"/><rect class="cls-8" x="680.2" y="149.92" width="4.19" height="3.69"/><rect class="cls-8" x="680.2" y="145.47" width="4.19" height="3.69"/><rect class="cls-8" x="680.2" y="154.37" width="4.19" height="3.69"/><rect class="cls-8" x="680.2" y="127.66" width="4.19" height="3.69"/><rect class="cls-8" x="670.29" y="132.11" width="4.19" height="3.69"/><rect class="cls-8" x="680.2" y="132.11" width="4.19" height="3.69"/><rect class="cls-8" x="680.2" y="141.02" width="4.19" height="3.69"/><rect class="cls-8" x="694.67" y="127.66" width="3.18" height="3.69"/><rect class="cls-8" x="694.67" y="118.76" width="3.18" height="3.69"/><rect class="cls-8" x="694.67" y="123.21" width="3.18" height="3.69"/><rect class="cls-8" x="694.67" y="114.31" width="3.18" height="3.69"/><rect class="cls-8" x="694.67" y="109.86" width="3.18" height="3.69"/><path class="cls-7" d="M694.67,109.1H690v49.72h8.63V109.1Zm3.17,49h-3.17v-3.69h3.17Zm-3.93,0h-3.18v-3.69h3.18Zm-3.18-48.2h3.18v3.69h-3.18Zm0,4.45h3.18V118h-3.18Zm0,4.45h3.18v3.69h-3.18Zm0,4.45h3.18v3.69h-3.18Zm0,4.45h3.18v3.69h-3.18Zm0,4.45h3.18v3.7h-3.18Zm0,4.46h3.18v3.69h-3.18Zm0,4.45h3.18v3.69h-3.18Zm0,4.45h3.18v3.69h-3.18Zm0,4.45h3.18v3.69h-3.18Zm7.11,3.69h-3.17v-3.69h3.17Zm0-4.45h-3.17v-3.69h3.17Zm0-4.45h-3.17V141h3.17Zm0-4.45h-3.17v-3.69h3.17Zm0-4.45h-3.17v-3.7h3.17Zm0-4.46h-3.17v-3.69h3.17Zm0-4.45h-3.17v-3.69h3.17Zm0-4.45h-3.17v-3.69h3.17Zm0-4.45h-3.17v-3.69h3.17Zm0-4.45h-3.17v-3.69h3.17Z"/><rect class="cls-8" x="694.67" y="132.11" width="3.18" height="3.69"/><rect class="cls-8" x="694.67" y="154.37" width="3.18" height="3.69"/><rect class="cls-8" x="690.73" y="154.37" width="3.18" height="3.69"/><rect class="cls-8" x="694.67" y="149.92" width="3.18" height="3.69"/><rect class="cls-8" x="694.67" y="145.47" width="3.18" height="3.69"/><rect class="cls-8" x="694.67" y="141.02" width="3.18" height="3.69"/><rect class="cls-8" x="694.67" y="136.57" width="3.18" height="3.69"/><rect class="cls-8" x="690.73" y="127.66" width="3.18" height="3.69"/><rect class="cls-8" x="690.73" y="136.57" width="3.18" height="3.69"/><rect class="cls-8" x="690.73" y="118.76" width="3.18" height="3.69"/><rect class="cls-8" x="690.73" y="123.21" width="3.18" height="3.69"/><rect class="cls-8" x="690.73" y="132.11" width="3.18" height="3.69"/><rect class="cls-8" x="690.73" y="149.92" width="3.18" height="3.69"/><rect class="cls-8" x="690.73" y="141.02" width="3.18" height="3.69"/><rect class="cls-8" x="690.73" y="145.47" width="3.18" height="3.69"/><rect class="cls-8" x="690.73" y="114.31" width="3.18" height="3.69"/><rect class="cls-8" x="690.73" y="109.86" width="3.18" height="3.69"/><rect class="cls-8" x="692.63" y="93.21" width="2.45" height="3.33"/><rect class="cls-8" x="689.42" y="93.21" width="2.46" height="3.33"/><rect class="cls-8" x="692.63" y="101.39" width="2.45" height="3.33"/><rect class="cls-8" x="692.63" y="97.3" width="2.45" height="3.33"/><rect class="cls-8" x="689.42" y="101.39" width="2.46" height="3.33"/><path class="cls-7" d="M692.63,105.49h3.22v-13h-7.19v13h4Zm-3.21-12.28h2.45v3.33h-2.45Zm3.21,0h2.46v3.33h-2.46Zm2.46,11.51h-2.46v-3.33h2.46Zm0-4.09h-2.46V97.3h2.46Zm-5.67-3.33h2.45v3.33h-2.45Zm0,4.09h2.45v3.33h-2.45Z"/><rect class="cls-8" x="689.42" y="97.3" width="2.46" height="3.33"/><polygon class="cls-8" points="679.82 161.32 678.22 161.32 674.86 165.89 674.86 166.9 677.37 166.9 679.82 163.57 679.82 161.32"/><polygon class="cls-8" points="675.26 161.32 674.86 161.87 674.86 164.26 677.02 161.32 675.26 161.32"/><polygon class="cls-8" points="678.28 166.9 679.82 166.9 679.82 164.82 678.28 166.9"/><polygon class="cls-8" points="679.82 166.9 684.77 166.9 684.77 161.32 682.38 161.32 679.82 164.82 679.82 166.9"/><polygon class="cls-8" points="681.46 161.32 679.82 161.32 679.82 163.57 681.46 161.32"/><polygon class="cls-8" points="690.35 161.32 690.35 162.17 690.98 161.32 690.35 161.32"/><polygon class="cls-8" points="698.22 166.9 698.22 166.54 697.95 166.9 698.22 166.9"/><polygon class="cls-8" points="698.22 162.33 694.83 166.9 697.2 166.9 698.22 165.52 698.22 162.33"/><polygon class="cls-15" points="674.86 161.32 674.86 161.87 675.26 161.32 674.86 161.32"/><polygon class="cls-15" points="677.02 161.32 674.86 164.26 674.86 165.89 678.22 161.32 677.02 161.32"/><polygon class="cls-15" points="679.82 164.82 679.82 163.57 677.37 166.9 678.28 166.9 679.82 164.82"/><polygon class="cls-15" points="679.82 164.82 682.38 161.32 681.46 161.32 679.82 163.57 679.82 164.82"/><polygon class="cls-15" points="694.29 166.9 694.29 161.32 690.98 161.32 690.35 162.17 690.35 166.9 694.29 166.9"/><polygon class="cls-15" points="698.22 161.32 694.29 161.32 694.29 166.9 694.83 166.9 698.22 162.33 698.22 161.32"/><polygon class="cls-15" points="698.22 166.54 698.22 165.52 697.2 166.9 697.95 166.9 698.22 166.54"/><g class="cls-11"><polygon class="cls-12" points="670.12 101.42 667.66 104.77 667.11 105.53 670.77 105.53 671.53 105.53 672.41 105.53 672.97 104.77 674.78 102.31 675.98 100.67 678.43 97.32 679.54 95.81 681.45 93.21 682 92.45 679.54 92.45 678.78 92.45 676.7 92.45 676.14 93.21 675.54 94.03 674.78 95.07 673.69 96.56 673.13 97.32 671.53 99.5 670.77 100.54 670.68 100.67 670.12 101.42"/><polygon class="cls-12" points="665.98 114.31 666.53 113.55 669.24 109.86 669.8 109.1 669.53 109.1 664.57 109.1 664.57 113.55 664.57 114.31 664.57 116.23 665.33 115.19 665.98 114.31"/><polygon class="cls-12" points="670.13 93.21 670.69 92.45 666.76 92.45 666.76 96.56 666.76 97.32 666.76 97.81 667.68 96.56 670.13 93.21"/><polygon class="cls-12" points="681.24 97.32 679.54 99.63 678.78 100.66 678.78 100.67 678.23 101.42 675.77 104.77 675.21 105.53 675.54 105.53 676.06 105.53 676.62 104.77 678.78 101.81 679.63 100.67 682.08 97.32 682.64 96.56 682.79 96.35 683.55 95.31 683.55 94.16 682.79 95.2 681.79 96.56 681.24 97.32"/><polygon class="cls-12" points="666.36 118.76 666.91 118 669.53 114.44 670.29 113.4 672.88 109.86 673.44 109.1 672.6 109.1 672.04 109.86 670.29 112.25 669.53 113.29 669.33 113.55 668.78 114.31 666.07 118 665.51 118.76 665.33 119.01 664.57 120.05 664.57 121.2 665.33 120.16 666.36 118.76"/><polygon class="cls-12" points="690.73 148.48 692.94 145.47 693.5 144.71 693.91 144.15 694.67 143.11 696.2 141.02 696.76 140.25 697.84 138.78 698.6 137.74 698.6 136.59 697.84 137.63 695.91 140.25 695.36 141.02 694.67 141.96 693.91 143 692.65 144.71 692.1 145.47 690.73 147.33 689.97 148.37 689.97 149.52 690.73 148.48"/><polygon class="cls-12" points="684.39 155.97 682.86 158.06 682.31 158.82 683.15 158.82 683.71 158.06 684.39 157.13 685.15 156.09 685.15 154.94 684.39 155.97"/><polygon class="cls-12" points="690.73 151.11 691.6 149.92 692.16 149.16 693.91 146.78 694.67 145.74 694.87 145.47 695.42 144.71 697.84 141.41 698.6 140.37 698.6 140.25 698.6 139.22 697.84 140.25 697.84 140.25 697.28 141.02 694.67 144.59 693.91 145.63 691.32 149.16 690.76 149.92 690.73 149.96 689.97 151 689.97 152.15 690.73 151.11"/><polygon class="cls-12" points="684.23 158.82 685.08 158.82 685.15 158.72 685.15 157.57 684.23 158.82"/><polygon class="cls-12" points="682.63 105.53 683.48 105.53 683.55 105.44 683.55 104.28 682.63 105.53"/><polygon class="cls-12" points="689.42 97.44 689.51 97.3 690.07 96.54 691.87 94.09 693.07 92.45 692.63 92.45 692.22 92.45 691.66 93.21 689.42 96.28 688.66 97.31 688.66 98.47 689.42 97.44"/><polygon class="cls-12" points="667.25 127.67 667.81 126.9 669.53 124.57 670.29 123.53 670.52 123.21 671.08 122.45 673.78 118.76 674.34 118 674.48 117.81 675.24 116.77 677.04 114.31 677.6 113.55 679.44 111.05 680.2 110.01 680.31 109.86 680.86 109.1 680.2 109.1 680.01 109.1 679.44 109.89 676.75 113.55 676.19 114.31 675.24 115.61 674.48 116.65 673.49 118 672.93 118.76 670.29 122.37 669.53 123.41 666.96 126.9 666.4 127.67 665.33 129.13 664.57 130.16 664.57 131.32 665.33 130.29 667.25 127.67"/><polygon class="cls-12" points="665.44 136.57 666 135.81 668.71 132.12 669.26 131.35 669.53 131 670.29 129.96 671.97 127.67 672.53 126.9 674.48 124.24 675.79 122.45 678.5 118.76 679.05 118 679.44 117.48 680.2 116.44 681.76 114.31 682.32 113.55 684.39 110.72 685.15 109.68 685.15 109.1 683.31 109.1 682.76 109.86 680.2 113.35 679.44 114.39 676.79 118 676.23 118.76 675.24 120.11 674.48 121.15 673.52 122.45 672.97 123.21 670.29 126.87 669.53 127.91 667 131.35 666.44 132.12 665.33 133.63 664.57 134.67 664.57 135.81 664.57 136.57 664.57 137.75 665.33 136.72 665.44 136.57"/><polygon class="cls-12" points="689.42 103.87 691.23 101.39 691.79 100.63 691.87 100.52 692.63 99.48 694.23 97.3 694.78 96.54 695.09 96.13 695.85 95.09 695.85 92.45 695.52 92.45 694.96 93.21 692.63 96.39 691.87 97.43 689.52 100.63 688.66 101.81 688.66 104.9 689.42 103.87"/><polygon class="cls-12" points="695.7 109.1 695.14 109.86 694.67 110.5 693.91 111.54 692.43 113.55 691.88 114.31 690.73 115.88 689.97 116.91 689.97 126.43 690.73 125.39 692.33 123.21 692.88 122.45 693.91 121.06 694.67 120.02 695.59 118.76 696.15 118 697.84 115.69 698.6 114.65 698.6 114.31 698.6 113.55 698.6 109.1 695.7 109.1"/><polygon class="cls-12" points="684.39 124.52 682.64 126.9 682.09 127.67 680.2 130.24 679.44 131.28 679.38 131.35 678.82 132.12 676.12 135.81 675.56 136.57 675.24 137 674.48 138.04 672.86 140.25 672.3 141.02 670.29 143.76 669.04 145.47 666.33 149.16 665.77 149.92 665.33 150.52 664.57 151.56 664.57 153.61 664.57 154.37 664.57 158.82 666.23 158.82 666.78 158.06 669.49 154.37 670.29 153.28 672.75 149.92 673.31 149.16 674.48 147.56 675.24 146.52 676.01 145.47 676.57 144.71 679.28 141.02 680.2 139.76 682.54 136.57 683.1 135.81 684.39 134.04 685.15 133 685.15 123.48 684.39 124.52"/><polygon class="cls-12" points="684.39 138.73 683.27 140.25 682.71 141.02 680.2 144.45 679.44 145.49 676.75 149.16 676.19 149.92 675.24 151.21 674.48 152.25 673.48 153.61 672.93 154.37 670.29 157.97 669.66 158.82 670.29 158.82 671.5 158.82 672.05 158.06 674.48 154.75 675.32 153.61 678.02 149.92 678.58 149.16 679.44 147.99 680.2 146.95 681.28 145.47 681.84 144.71 684.39 141.23 685.15 140.19 685.15 137.69 684.39 138.73"/><polygon class="cls-12" points="690.73 132.59 691.07 132.12 691.63 131.35 693.91 128.25 694.89 126.9 697.6 123.21 698.6 121.84 698.6 119.34 697.84 120.38 696.32 122.45 695.76 123.21 694.67 124.71 693.91 125.75 693.06 126.9 692.5 127.67 690.73 130.08 689.97 131.12 689.97 133.62 690.73 132.59"/><polygon class="cls-12" points="697.56 149.16 697 149.92 694.67 153.1 693.74 154.37 691.03 158.06 690.47 158.82 692.31 158.82 692.86 158.06 693.91 156.64 694.67 155.6 695.57 154.37 696.13 153.61 697.84 151.27 698.6 150.23 698.6 149.92 698.6 149.16 698.6 147.73 697.84 148.76 697.56 149.16"/></g><path class="cls-6" d="M683.46,77.72h-4.8c-.23,0-.47,0-.7,0A11.51,11.51,0,0,1,686.19,82h6.21A11.5,11.5,0,0,0,683.46,77.72Z"/><path class="cls-5" d="M686.19,82a11.47,11.47,0,0,1,2.59,7.26H695A11.48,11.48,0,0,0,692.4,82Z"/><rect class="cls-6" x="758.86" y="109.74" width="9.32" height="61.03"/><polygon class="cls-5" points="768.17 89.14 758.86 109.75 768.17 109.75 768.17 89.14"/><polygon class="cls-7" points="768.17 89.14 739.43 109.75 758.86 109.75 768.17 89.14"/><rect class="cls-4" x="739.43" y="109.74" width="19.42" height="61.03"/><rect class="cls-7" x="741.96" y="113.52" width="16.9" height="3.84"/><rect class="cls-8" x="758.86" y="113.52" width="7.02" height="3.84"/><rect class="cls-7" x="741.96" y="119.62" width="16.9" height="3.84"/><rect class="cls-8" x="758.86" y="119.62" width="7.02" height="3.84"/><rect class="cls-7" x="741.96" y="125.72" width="16.9" height="3.84"/><rect class="cls-8" x="758.86" y="125.72" width="7.02" height="3.84"/><rect class="cls-7" x="741.96" y="131.83" width="16.9" height="3.84"/><rect class="cls-8" x="758.86" y="131.83" width="7.02" height="3.84"/><rect class="cls-7" x="741.96" y="137.93" width="16.9" height="3.84"/><rect class="cls-8" x="758.86" y="137.93" width="7.02" height="3.84"/><rect class="cls-7" x="741.96" y="144.03" width="16.9" height="3.84"/><rect class="cls-8" x="758.86" y="144.03" width="7.02" height="3.84"/><rect class="cls-7" x="741.96" y="150.14" width="16.9" height="3.84"/><rect class="cls-8" x="758.86" y="150.14" width="7.02" height="3.84"/><rect class="cls-8" x="761.05" y="157.78" width="4.82" height="4.82"/><polygon class="cls-7" points="750.44 109.75 762.67 93.08 753.38 99.74 745.96 109.75 750.44 109.75"/><polygon class="cls-7" points="758.68 109.75 759.14 109.11 761.96 102.88 756.92 109.75 758.68 109.75"/><polygon class="cls-7" points="739.43 109.75 740.07 109.75 740.8 108.76 739.43 109.75"/><polygon class="cls-7" points="758.86 117.36 758.86 113.52 757.11 113.52 754.29 117.36 758.86 117.36"/><polygon class="cls-7" points="755.91 113.52 754.15 113.52 751.33 117.36 753.09 117.36 755.91 113.52"/><polygon class="cls-7" points="743.16 113.52 741.96 115.14 741.96 117.36 744.86 117.36 747.67 113.52 743.16 113.52"/><polygon class="cls-8" points="760.23 117.36 763.05 113.52 758.86 113.52 758.86 117.36 760.23 117.36"/><polygon class="cls-8" points="765.88 117.36 765.88 113.52 763.96 113.52 761.14 117.36 765.88 117.36"/><polygon class="cls-7" points="751.43 119.62 749.67 119.62 746.85 123.46 748.61 123.46 751.43 119.62"/><polygon class="cls-7" points="758.86 123.46 758.86 120.48 756.66 123.46 758.86 123.46"/><polygon class="cls-7" points="749.81 123.46 755.75 123.46 758.57 119.62 752.63 119.62 749.81 123.46"/><polygon class="cls-7" points="741.96 119.62 741.96 121.3 743.19 119.62 741.96 119.62"/><polygon class="cls-8" points="758.86 123.46 762.69 123.46 765.54 119.62 759.48 119.62 758.86 120.48 758.86 123.46"/><polygon class="cls-7" points="754.09 125.72 748.14 125.72 745.33 129.56 751.27 129.56 754.09 125.72"/><polygon class="cls-7" points="758.86 125.72 755 125.72 752.18 129.56 758.16 129.56 758.86 128.63 758.86 125.72"/><polygon class="cls-7" points="745.19 125.72 742.37 129.56 744.13 129.56 746.95 125.72 745.19 125.72"/><polygon class="cls-8" points="758.86 128.63 761.01 125.72 758.86 125.72 758.86 128.63"/><polygon class="cls-7" points="741.96 131.83 741.96 132.52 742.47 131.83 741.96 131.83"/><polygon class="cls-7" points="756.48 131.83 750.52 131.83 747.71 135.67 753.63 135.67 756.48 131.83"/><polygon class="cls-7" points="743.66 131.83 741.96 134.15 741.96 135.67 746.79 135.67 749.61 131.83 743.66 131.83"/><polygon class="cls-8" points="764.01 135.67 765.88 133.16 765.88 131.83 764.47 131.83 761.62 135.67 764.01 135.67"/><polygon class="cls-8" points="765.88 135.67 765.88 134.18 764.77 135.67 765.88 135.67"/><polygon class="cls-7" points="746.04 137.93 743.23 141.77 749.1 141.77 751.95 137.93 746.04 137.93"/><polygon class="cls-7" points="758.86 139.39 757.09 141.77 758.86 141.77 758.86 139.39"/><polygon class="cls-7" points="741.96 137.93 741.96 141.77 742.31 141.77 745.13 137.93 741.96 137.93"/><polygon class="cls-8" points="759.47 141.77 762.33 137.93 759.94 137.93 758.86 139.39 758.86 141.77 759.47 141.77"/><polygon class="cls-8" points="763.68 141.77 765.88 138.81 765.88 137.93 763.08 137.93 760.22 141.77 763.68 141.77"/><polygon class="cls-7" points="758.53 144.03 755.67 147.87 758.86 147.87 758.86 144.03 758.53 144.03"/><polygon class="cls-7" points="757.78 144.03 755.41 144.03 752.56 147.87 754.92 147.87 757.78 144.03"/><polygon class="cls-7" points="741.96 144.03 741.96 147.87 744.57 147.87 747.42 144.03 741.96 144.03"/><polygon class="cls-8" points="758.86 147.87 759.15 147.87 762 144.03 758.86 144.03 758.86 147.87"/><polygon class="cls-8" points="765.88 147.87 765.88 146.74 765.04 147.87 765.88 147.87"/><polygon class="cls-7" points="750.88 150.14 748.03 153.97 750.37 153.97 753.23 150.14 750.88 150.14"/><polygon class="cls-7" points="741.96 150.14 741.96 151.39 742.89 150.14 741.96 150.14"/><polygon class="cls-7" points="753.99 150.14 751.13 153.97 754.62 153.97 757.47 150.14 753.99 150.14"/><polygon class="cls-8" points="765.88 150.14 763.36 150.14 760.51 153.97 764.73 153.97 765.88 152.41 765.88 150.14"/><polygon class="cls-8" points="765.88 160.42 764.27 162.6 765.88 162.6 765.88 160.42"/><polygon class="cls-8" points="765.88 157.78 763.13 157.78 761.05 160.61 761.05 162.6 763.08 162.6 765.88 158.79 765.88 157.78"/><polygon class="cls-8" points="761.05 157.78 761.05 158.98 761.93 157.78 761.05 157.78"/><polygon class="cls-15" points="756.92 109.75 761.96 102.88 768.17 89.14 762.67 93.08 750.44 109.75 756.92 109.75"/><polygon class="cls-15" points="754.15 113.52 747.67 113.52 744.86 117.36 751.33 117.36 754.15 113.52"/><polygon class="cls-15" points="746.85 123.46 749.67 119.62 743.19 119.62 741.96 121.3 741.96 123.46 746.85 123.46"/><polygon class="cls-15" points="741.96 125.72 741.96 129.56 742.37 129.56 745.19 125.72 741.96 125.72"/><polygon class="cls-15" points="758.86 109.75 759.14 109.11 758.68 109.75 758.86 109.75"/><polygon class="cls-15" points="753.09 117.36 754.29 117.36 757.11 113.52 755.91 113.52 753.09 117.36"/><polygon class="cls-15" points="751.43 119.62 748.61 123.46 749.81 123.46 752.63 119.62 751.43 119.62"/><polygon class="cls-15" points="748.14 125.72 746.95 125.72 744.13 129.56 745.33 129.56 748.14 125.72"/><polygon class="cls-15" points="742.47 131.83 741.96 132.52 741.96 134.15 743.66 131.83 742.47 131.83"/><polygon class="cls-15" points="765.88 152.41 764.73 153.97 765.88 153.97 765.88 152.41"/><polygon class="cls-15" points="761.93 157.78 761.05 158.98 761.05 160.61 763.13 157.78 761.93 157.78"/><polygon class="cls-15" points="765.88 158.79 763.08 162.6 764.27 162.6 765.88 160.42 765.88 158.79"/><polygon class="cls-15" points="761.14 117.36 763.96 113.52 763.05 113.52 760.23 117.36 761.14 117.36"/><polygon class="cls-15" points="756.66 123.46 758.86 120.48 758.86 119.62 758.57 119.62 755.75 123.46 756.66 123.46"/><polygon class="cls-15" points="758.86 120.48 759.48 119.62 758.86 119.62 758.86 120.48"/><polygon class="cls-15" points="754.09 125.72 751.27 129.56 752.18 129.56 755 125.72 754.09 125.72"/><polygon class="cls-15" points="750.52 131.83 749.61 131.83 746.79 135.67 747.71 135.67 750.52 131.83"/><polygon class="cls-15" points="745.13 137.93 742.31 141.77 743.23 141.77 746.04 137.93 745.13 137.93"/><polygon class="cls-15" points="765.88 123.46 765.88 119.62 765.54 119.62 762.69 123.46 765.88 123.46"/><polygon class="cls-15" points="758.16 129.56 758.86 129.56 758.86 128.63 758.16 129.56"/><polygon class="cls-15" points="758.86 129.56 765.88 129.56 765.88 125.72 761.01 125.72 758.86 128.63 758.86 129.56"/><polygon class="cls-15" points="758.86 135.67 758.86 131.83 756.48 131.83 753.63 135.67 758.86 135.67"/><polygon class="cls-15" points="758.86 135.67 761.62 135.67 764.47 131.83 758.86 131.83 758.86 135.67"/><polygon class="cls-15" points="758.86 139.39 758.86 137.93 751.95 137.93 749.1 141.77 757.09 141.77 758.86 139.39"/><polygon class="cls-15" points="758.86 137.93 758.86 139.39 759.94 137.93 758.86 137.93"/><polygon class="cls-15" points="755.41 144.03 747.42 144.03 744.57 147.87 752.56 147.87 755.41 144.03"/><polygon class="cls-15" points="742.89 150.14 741.96 151.39 741.96 153.97 748.03 153.97 750.88 150.14 742.89 150.14"/><polygon class="cls-15" points="765.88 141.77 765.88 138.81 763.68 141.77 765.88 141.77"/><polygon class="cls-15" points="762 144.03 759.15 147.87 765.04 147.87 765.88 146.74 765.88 144.03 762 144.03"/><polygon class="cls-15" points="758.86 150.14 757.47 150.14 754.62 153.97 758.86 153.97 758.86 150.14"/><polygon class="cls-15" points="758.86 150.14 758.86 153.97 760.51 153.97 763.36 150.14 758.86 150.14"/><polygon class="cls-15" points="753.38 99.74 740.8 108.76 740.07 109.75 745.96 109.75 753.38 99.74"/><polygon class="cls-15" points="741.96 113.52 741.96 115.14 743.16 113.52 741.96 113.52"/><polygon class="cls-15" points="764.77 135.67 765.88 134.18 765.88 133.16 764.01 135.67 764.77 135.67"/><polygon class="cls-15" points="759.47 141.77 760.22 141.77 763.08 137.93 762.33 137.93 759.47 141.77"/><polygon class="cls-15" points="757.78 144.03 754.92 147.87 755.67 147.87 758.53 144.03 757.78 144.03"/><polygon class="cls-15" points="753.23 150.14 750.37 153.97 751.13 153.97 753.99 150.14 753.23 150.14"/><polygon class="cls-10" points="741.96 157.78 741.96 170.78 745.94 170.78 745.94 161.51 756.23 161.51 756.23 157.78 741.96 157.78"/><rect class="cls-6" x="744.49" y="160.19" width="11.74" height="10.58"/><path class="cls-16" d="M566.75,160.8a5.47,5.47,0,0,1-4.25-2.66c-1.31-2.59.41-5.79-.32-8.59-.49-1.85-2-3.68-1.29-5.44.63-1.51,2.67-2.11,3.16-3.67s-.92-3.11-1.63-4.65c-1.12-2.4-.49-5.22.16-7.79a21.13,21.13,0,0,1,2.73-7.1c1.24-1.76,3-3.11,4.26-4.84.72-1,1.28-2.06,2.09-3a3.92,3.92,0,0,1,3.18-1.45c1.57.19,2.64,1.74,3,3.27s.28,3.16.6,4.7c.93,4.38,5.19,7.76,5.18,12.24,0,2.4-1.29,4.66-1.26,7.06,0,1.82.79,3.53,1.29,5.29s.7,3.76-.3,5.28-3.5,2.6-3.59,4.58c0,1.29,1,2.4,1.09,3.68.16,1.81-1.63,3.33-3.44,3.56-2,.25-3.52-.94-5.39-1S568.6,161,566.75,160.8Z"/><polygon class="cls-3" points="577.54 136.32 576.78 135.82 572.74 141.95 572.74 125.77 571.82 125.77 571.82 154.1 566.64 148.76 565.99 149.41 571.82 155.42 571.82 170.78 572.74 170.78 572.74 143.62 577.54 136.32"/><path class="cls-17" d="M726.61,170.77H691.08a10.25,10.25,0,0,1-3-3.7,4.41,4.41,0,0,1,.35-4.38,18.77,18.77,0,0,1,2.61-2.15,18.52,18.52,0,0,0,2.69-3.92c.87-1.33,2.21-2.59,3.8-2.54,1.26,0,2.37.89,3.63,1,1.86.18,3.44-1.24,5.14-2,2.86-1.35,6.23-.93,9.27-.06,4.76,1.35,9.44,3.94,11.91,8.22A8.8,8.8,0,0,1,726.61,170.77Z"/><path class="cls-18" d="M727.58,164a7.19,7.19,0,0,1-5.35-2.72c-1.41-2-1.32-4.85-2.9-6.74-2.22-2.69-7.26-2.94-7.88-6.37-.32-1.79.92-3.51,2.37-4.61s3.17-1.82,4.53-3c2.6-2.32,3.55-6.15,6.32-8.26,3.85-2.93,9.32-1.4,13.86.24,2.92,1.06,5.92,2.16,8.25,4.23s3.83,5.36,2.92,8.33c-.42,1.38-1.33,2.67-1.18,4.11.13,1.26,1.06,2.28,1.58,3.44,1.56,3.53-1.15,7.77-4.7,9.27-3.27,1.38-6.26.56-9.61.79C733,162.87,730.54,164.23,727.58,164Z"/><polygon class="cls-3" points="738.85 152.5 738.16 151.91 733.58 157.34 733.58 136.92 732.68 136.92 732.68 149.28 728.59 143.63 727.86 144.16 732.68 150.82 732.68 170.78 733.58 170.78 733.58 158.74 738.85 152.5"/><path class="cls-19" d="M832.73,166.3a4.71,4.71,0,0,1-3.52-1.8c-.93-1.33-.88-3.19-1.91-4.44-1.47-1.77-4.8-1.94-5.2-4.2a3.34,3.34,0,0,1,1.56-3c1-.73,2.09-1.2,3-2,1.71-1.53,2.34-4.06,4.17-5.45,2.53-1.93,6.14-.92,9.14.16a16.33,16.33,0,0,1,5.44,2.79,5.52,5.52,0,0,1,1.93,5.49c-.28.91-.88,1.77-.79,2.71a8.24,8.24,0,0,0,1.05,2.28c1,2.32-.76,5.12-3.1,6.11-2.16.91-4.13.37-6.34.52C836.28,165.56,834.69,166.46,832.73,166.3Z"/><polygon class="cls-3" points="840.17 158.72 839.72 158.33 836.7 161.91 836.7 148.45 836.1 148.45 836.1 156.6 833.4 152.87 832.92 153.22 836.1 157.61 836.1 170.78 836.7 170.78 836.7 162.84 840.17 158.72"/><path class="cls-20" d="M0,20.09S171.19-50.23,396.49,72.26c0,0,106.26,72.59,242.29,90.74,0,0,114.77,25,263.55-29.49,0,0,219.2-102.08,374.21-27.22V213.42H0Z"/></g></g></svg>